
<svg width="932" height="513" viewBox="0 0 932 513" fill="none" xmlns="http://www.w3.org/2000/svg">
<g clip-path="url(#clip0_12_37)">
<path d="M347.127 352.4C361.727 352.4 373.563 340.564 373.563 325.964C373.563 311.364 361.727 299.528 347.127 299.528C332.526 299.528 320.69 311.364 320.69 325.964C320.69 340.564 332.526 352.4 347.127 352.4Z" fill="black"/>
<path d="M344.607 337.123L336.695 326.95L341.296 323.371L345.043 328.188L357.699 314.827L361.932 318.837L344.607 337.123Z" fill="white"/>
<path d="M852.299 84H459.299V0H852.299V84Z" fill="white"/>
<path d="M510.223 63.3384C522.008 63.3384 531.562 53.7849 531.562 42C531.562 30.2151 522.008 20.6615 510.223 20.6615C498.439 20.6615 488.885 30.2151 488.885 42C488.885 53.7849 498.439 63.3384 510.223 63.3384Z" fill="black"/>
<path d="M559.505 27.7743C558.562 27.7743 557.657 28.149 556.99 28.8159C556.323 29.4829 555.949 30.3875 555.949 31.3307C555.949 32.2739 556.323 33.1785 556.99 33.8455C557.657 34.5124 558.562 34.8871 559.505 34.8871H819.164C820.106 34.8849 821.009 34.5092 821.674 33.8425C822.339 33.1758 822.712 32.2725 822.712 31.3307C822.712 30.3889 822.339 29.4856 821.674 28.8189C821.009 28.1522 820.106 27.7765 819.164 27.7743H559.505Z" fill="#3F3D56"/>
<path d="M559.505 49.1128C558.562 49.1108 557.657 49.4836 556.988 50.1491C556.32 50.8147 555.943 51.7185 555.941 52.6617C555.939 53.6049 556.312 54.5103 556.978 55.1787C557.643 55.847 558.547 56.2236 559.49 56.2256H723.649C724.117 56.2264 724.58 56.135 725.012 55.9566C725.445 55.7782 725.837 55.5164 726.168 55.1861C726.499 54.8558 726.761 54.4634 726.941 54.0316C727.12 53.5997 727.212 53.1367 727.212 52.6692C727.212 52.2017 727.12 51.7387 726.941 51.3068C726.761 50.875 726.499 50.4827 726.168 50.1523C725.837 49.822 725.445 49.5602 725.012 49.3818C724.58 49.2034 724.117 49.112 723.649 49.1128H559.505Z" fill="#3F3D56"/>
<path d="M852.299 84H459.299V0H852.299V84ZM465.299 78H846.299V6H465.299V78Z" fill="#CCCCCC"/>
<path d="M852.299 189H459.299V105H852.299V189Z" fill="white"/>
<path d="M510.223 168.338C522.008 168.338 531.562 158.785 531.562 147C531.562 135.215 522.008 125.661 510.223 125.661C498.439 125.661 488.885 135.215 488.885 147C488.885 158.785 498.439 168.338 510.223 168.338Z" fill="#E6E6E6"/>
<path d="M559.505 132.774C558.562 132.774 557.657 133.149 556.99 133.816C556.323 134.483 555.949 135.388 555.949 136.331C555.949 137.274 556.323 138.179 556.99 138.846C557.657 139.513 558.562 139.887 559.505 139.887H819.164C820.106 139.885 821.009 139.509 821.674 138.843C822.339 138.176 822.712 137.273 822.712 136.331C822.712 135.389 822.339 134.486 821.674 133.819C821.009 133.152 820.106 132.777 819.164 132.774H559.505Z" fill="#E6E6E6"/>
<path d="M559.505 154.113C558.562 154.111 557.657 154.484 556.988 155.149C556.32 155.815 555.943 156.719 555.941 157.662C555.939 158.605 556.312 159.51 556.978 160.179C557.643 160.847 558.547 161.224 559.49 161.226H723.649C724.117 161.226 724.58 161.135 725.012 160.957C725.445 160.778 725.837 160.516 726.168 160.186C726.499 159.856 726.761 159.463 726.941 159.032C727.12 158.6 727.212 158.137 727.212 157.669C727.212 157.202 727.12 156.739 726.941 156.307C726.761 155.875 726.499 155.483 726.168 155.152C725.837 154.822 725.445 154.56 725.012 154.382C724.58 154.203 724.117 154.112 723.649 154.113H559.505Z" fill="#E6E6E6"/>
<path d="M852.299 189H459.299V105H852.299V189ZM465.299 183H846.299V111H465.299V183Z" fill="#E6E6E6"/>
<path d="M852.299 294H459.299V210H852.299V294Z" fill="white"/>
<path d="M510.223 273.338C522.008 273.338 531.562 263.785 531.562 252C531.562 240.215 522.008 230.661 510.223 230.661C498.439 230.661 488.885 240.215 488.885 252C488.885 263.785 498.439 273.338 510.223 273.338Z" fill="#E6E6E6"/>
<path d="M559.505 237.774C558.562 237.774 557.657 238.149 556.99 238.816C556.323 239.483 555.949 240.388 555.949 241.331C555.949 242.274 556.323 243.179 556.99 243.846C557.657 244.513 558.562 244.887 559.505 244.887H819.164C820.106 244.885 821.009 244.509 821.674 243.843C822.339 243.176 822.712 242.273 822.712 241.331C822.712 240.389 822.339 239.486 821.674 238.819C821.009 238.152 820.106 237.777 819.164 237.774H559.505Z" fill="#E6E6E6"/>
<path d="M559.505 259.113C558.562 259.111 557.657 259.484 556.988 260.149C556.32 260.815 555.943 261.719 555.941 262.662C555.939 263.605 556.312 264.51 556.978 265.179C557.643 265.847 558.547 266.224 559.49 266.226H723.649C724.117 266.226 724.58 266.135 725.012 265.957C725.445 265.778 725.837 265.516 726.168 265.186C726.499 264.856 726.761 264.463 726.941 264.032C727.12 263.6 727.212 263.137 727.212 262.669C727.212 262.202 727.12 261.739 726.941 261.307C726.761 260.875 726.499 260.483 726.168 260.152C725.837 259.822 725.445 259.56 725.012 259.382C724.58 259.203 724.117 259.112 723.649 259.113H559.505Z" fill="#E6E6E6"/>
<path d="M852.299 294H459.299V210H852.299V294ZM465.299 288H846.299V216H465.299V288Z" fill="#E6E6E6"/>
<path d="M200.758 313.929C199.862 312.778 199.229 311.444 198.905 310.022C198.58 308.599 198.571 307.123 198.879 305.697C199.186 304.271 199.803 302.93 200.685 301.767C201.567 300.605 202.693 299.651 203.983 298.971L201.9 276.262L215.391 271.63L217.883 303.741C218.882 305.985 219.022 308.517 218.278 310.858C217.534 313.199 215.957 315.186 213.846 316.441C211.735 317.697 209.237 318.135 206.825 317.672C204.413 317.209 202.254 315.877 200.758 313.929Z" fill="#FFB8B8"/>
<path d="M215.242 183.592C215.242 183.592 224.5 164.163 232.727 170.997C240.953 177.832 221.448 235.282 221.448 235.282L218.481 291.053L202.846 289.49L198.425 235.154L215.242 183.592Z" fill="#CCCCCC"/>
<path d="M91.056 471.047L102.662 480.442L144.423 440.146L127.294 426.28L91.056 471.047Z" fill="#FFB8B8"/>
<path d="M91.1626 464.861L114.02 483.364L114.021 483.364C117.884 486.492 120.346 491.026 120.866 495.968C121.386 500.911 119.922 505.858 116.795 509.722L116.412 510.195L78.9882 479.901L91.1626 464.861Z" fill="#2F2E41"/>
<path d="M252.357 497.127H267.289L274.393 439.53L252.354 439.531L252.357 497.127Z" fill="#FFB8B8"/>
<path d="M248.548 492.252L277.955 492.251H277.956C282.926 492.251 287.693 494.226 291.207 497.74C294.722 501.255 296.696 506.021 296.697 510.991V511.6L248.549 511.602L248.548 492.252Z" fill="#2F2E41"/>
<path d="M278.559 227.11C278.559 227.11 306.573 261.214 300.483 295.318C294.393 329.421 289.521 354.999 289.521 354.999L279.777 431.733C279.777 431.733 283.431 452.63 278.559 458.016C278.559 458.016 285.867 470.709 272.469 475.581C259.071 480.453 251.842 473.897 251.842 473.897C251.842 473.897 242.019 459.747 248.109 456.093L250.674 305.505L153.105 432.951C153.105 432.951 151.312 448.453 138.811 448.619L123.874 459.747L106.822 450.003L115.348 439.041C115.348 439.041 110.476 426.861 121.438 424.425L184.773 341.601L200.607 298.972C200.607 298.972 209.133 266.086 232.275 252.688V238.432L278.559 227.11Z" fill="#2F2E41"/>
<path d="M230.448 168.037C234.136 163.679 239.298 160.829 244.951 160.031C250.604 159.233 256.354 160.542 261.104 163.709L262.116 164.383C272.927 176.627 280.193 191.587 283.132 207.654L287.694 232.591L230.448 244.991L217.028 198.707C215.324 192.833 215.734 186.547 218.186 180.943C220.638 175.34 224.977 170.773 230.448 168.037Z" fill="#CCCCCC"/>
<path d="M324.499 319.231C322.912 318.712 321.458 317.852 320.24 316.71C319.021 315.569 318.068 314.174 317.446 312.624C316.825 311.074 316.551 309.407 316.644 307.74C316.737 306.073 317.194 304.447 317.984 302.975L301.47 282.765L311.305 269.734L334.224 298.603C336.608 300.093 338.362 302.405 339.155 305.102C339.947 307.8 339.723 310.694 338.524 313.236C337.325 315.779 335.236 317.794 332.651 318.899C330.066 320.004 327.165 320.122 324.499 319.231Z" fill="#FFB8B8"/>
<path d="M254.808 186.307C254.808 186.307 251.154 161.947 263.334 163.165C275.514 164.383 293.784 231.373 293.784 231.373L326.669 286.183L310.836 294.709L271.86 245.989L254.808 186.307Z" fill="#CCCCCC"/>
<path d="M277.112 150.694H219.112C217.919 150.693 216.775 150.218 215.932 149.375C215.088 148.531 214.613 147.387 214.612 146.194V121.194C214.612 112.309 218.142 103.789 224.424 97.5061C230.707 91.2237 239.227 87.6942 248.112 87.6942C256.997 87.6942 265.518 91.2237 271.8 97.5061C278.083 103.789 281.612 112.309 281.612 121.194V146.194C281.611 147.387 281.136 148.531 280.293 149.375C279.449 150.218 278.305 150.693 277.112 150.694Z" fill="#2F2E41"/>
<path d="M254.996 150.112C268.561 150.112 279.557 139.116 279.557 125.551C279.557 111.986 268.561 100.99 254.996 100.99C241.431 100.99 230.435 111.986 230.435 125.551C230.435 139.116 241.431 150.112 254.996 150.112Z" fill="#FFB8B8"/>
<path d="M289.538 123.694H258.628L258.311 118.602L256.726 123.694H251.967L251.339 113.602L248.198 123.694H238.988V123.194C238.988 108.582 249.349 96.6942 262.084 96.6942H266.442C279.177 96.6942 289.538 108.582 289.538 123.194V123.694Z" fill="#2F2E41"/>
<path d="M259.907 155.361C259.529 155.361 259.152 155.332 258.779 155.274L221.988 149.607V111.287C221.988 107.373 223.543 103.619 226.311 100.851C229.079 98.0826 232.833 96.5276 236.748 96.5276H262.488L261.485 97.5481C247.534 111.751 258.044 134.781 265.551 147.245C266.102 148.141 266.351 149.19 266.261 150.238C266.171 151.286 265.747 152.277 265.052 153.066C264.413 153.8 263.622 154.386 262.733 154.782C261.844 155.179 260.88 155.376 259.907 155.361Z" fill="#2F2E41"/>
<path d="M905.127 68.4002C919.727 68.4002 931.563 56.5643 931.563 41.9639C931.563 27.3635 919.727 15.5276 905.127 15.5276C890.526 15.5276 878.69 27.3635 878.69 41.9639C878.69 56.5643 890.526 68.4002 905.127 68.4002Z" fill="black"/>
<path d="M902.607 53.123L894.695 42.95L899.296 39.371L903.043 44.188L915.699 30.827L919.932 34.837L902.607 53.123Z" fill="white"/>
<path d="M382 512.801H1C0.734784 512.801 0.480429 512.696 0.292892 512.508C0.105356 512.321 0 512.066 0 511.801C0 511.536 0.105356 511.281 0.292892 511.094C0.480429 510.906 0.734784 510.801 1 510.801H382C382.265 510.801 382.52 510.906 382.707 511.094C382.895 511.281 383 511.536 383 511.801C383 512.066 382.895 512.321 382.707 512.508C382.52 512.696 382.265 512.801 382 512.801Z" fill="#CCCCCC"/>
</g>
<defs>
<clipPath id="clip0_12_37">
<rect width="931.563" height="512.801" fill="white"/>
</clipPath>
</defs>
</svg>
