<svg width="203" height="203" viewBox="0 0 203 203" fill="none" xmlns="http://www.w3.org/2000/svg">
<g clip-path="url(#clip0_1_2)">
<path d="M202.827 198.548L186.435 149.374C195.063 134.325 199.617 117.222 199.617 99.8083C199.617 44.7716 154.845 0 99.8083 0C44.7716 0 0 44.7716 0 99.8083C0 154.845 44.7716 199.617 99.8083 199.617C115.507 199.617 131.128 195.868 145.071 188.763L198.754 202.892C199.041 202.963 199.329 203 199.617 203C200.537 203 201.437 202.621 202.083 201.931C202.932 201.024 203.22 199.725 202.827 198.548ZM54.1333 71.1008H101.5C103.368 71.1008 104.883 72.6165 104.883 74.4841C104.883 76.3517 103.368 77.8674 101.5 77.8674H54.1333C52.2657 77.8674 50.75 76.3517 50.75 74.4841C50.75 72.6165 52.2657 71.1008 54.1333 71.1008ZM145.483 132.001H54.1333C52.2657 132.001 50.75 130.485 50.75 128.617C50.75 126.75 52.2657 125.234 54.1333 125.234H145.483C147.351 125.234 148.867 126.75 148.867 128.617C148.867 130.485 147.351 132.001 145.483 132.001ZM145.483 104.934H54.1333C52.2657 104.934 50.75 103.418 50.75 101.551C50.75 99.6832 52.2657 98.1674 54.1333 98.1674H145.483C147.351 98.1674 148.867 99.6832 148.867 101.551C148.867 103.418 147.351 104.934 145.483 104.934Z" fill="#FFF9F9"/>
</g>
<defs>
<clipPath id="clip0_1_2">
<rect width="203" height="203" fill="white"/>
</clipPath>
</defs>
</svg>
