<svg width="800" height="800" viewBox="0 0 800 800" fill="none" xmlns="http://www.w3.org/2000/svg">
<path fill-rule="evenodd" clip-rule="evenodd" d="M673.833 79.5667L398.567 431.133L308.433 328.067C305.561 324.745 302.06 322.023 298.132 320.058C294.204 318.093 289.926 316.924 285.545 316.617C281.164 316.311 276.765 316.873 272.602 318.272C268.439 319.671 264.593 321.879 261.286 324.769C257.979 327.659 255.275 331.174 253.331 335.112C251.386 339.05 250.239 343.334 249.956 347.717C249.672 352.1 250.257 356.495 251.678 360.651C253.098 364.807 255.326 368.641 258.233 371.933L361.667 490.2C366.511 495.737 372.518 500.137 379.258 503.085C385.998 506.034 393.306 507.459 400.661 507.258C408.015 507.058 415.234 505.237 421.804 501.925C428.374 498.613 434.131 493.893 438.667 488.1L726.333 120.667C729.032 117.219 731.025 113.274 732.199 109.057C733.373 104.839 733.705 100.432 733.176 96.0862C732.647 91.7404 731.267 87.5414 729.114 83.729C726.962 79.9166 724.081 76.5653 720.633 73.8667C717.186 71.168 713.241 69.1748 709.024 68.0007C704.806 66.8266 700.399 66.4948 696.053 67.0241C691.707 67.5534 687.508 68.9335 683.696 71.0855C679.883 73.2376 676.532 76.1195 673.833 79.5667ZM666.667 366.667C657.826 366.667 649.348 370.179 643.096 376.43C636.845 382.681 633.333 391.159 633.333 400V602.567C633.333 617.867 632.633 621.567 630.6 625.367C629.443 627.614 627.614 629.443 625.367 630.6C621.6 632.6 617.867 633.333 602.567 633.333H197.433C182.133 633.333 178.433 632.6 174.633 630.6C172.385 629.445 170.555 627.615 169.4 625.367C167.4 621.6 166.667 617.867 166.667 602.567V183.333C166.667 178.913 168.423 174.674 171.548 171.548C174.674 168.423 178.913 166.667 183.333 166.667L466.667 166.8C475.507 166.8 483.986 163.288 490.237 157.037C496.488 150.786 500 142.307 500 133.467C500 124.626 496.488 116.148 490.237 109.896C483.986 103.645 475.507 100.133 466.667 100.133L183.333 100C161.232 100 140.036 108.78 124.408 124.408C108.78 140.036 100 161.232 100 183.333V602.567C100 627.9 102.733 642.067 110.633 656.8C118.1 670.767 129.233 681.9 143.2 689.367C157.933 697.267 172.067 700 197.433 700H602.567C627.9 700 642.067 697.267 656.8 689.367C670.8 681.9 681.933 670.767 689.4 656.8C697.267 642.067 700 627.933 700 602.567V400C700 391.159 696.488 382.681 690.237 376.43C683.986 370.179 675.507 366.667 666.667 366.667Z" fill="white"/>
</svg>
